<svg id="visual" viewBox="0 0 1900 120" width="1900" height="120" xmlns="http://www.w3.org/2000/svg" xmlns:xlink="http://www.w3.org/1999/xlink" version="1.1"><rect x="0" y="0" width="1900" height="120" fill="#2E5DAD"></rect><path d="M0 37L21.2 41.7C42.3 46.3 84.7 55.7 126.8 63C169 70.3 211 75.7 253.2 75.2C295.3 74.7 337.7 68.3 380 67.3C422.3 66.3 464.7 70.7 506.8 71.8C549 73 591 71 633.2 65.8C675.3 60.7 717.7 52.3 760 52C802.3 51.7 844.7 59.3 886.8 62.7C929 66 971 65 1013.2 65.3C1055.3 65.7 1097.7 67.3 1140 67.5C1182.3 67.7 1224.7 66.3 1266.8 68.5C1309 70.7 1351 76.3 1393.2 74.2C1435.3 72 1477.7 62 1520 57C1562.3 52 1604.7 52 1646.8 58C1689 64 1731 76 1773.2 79.5C1815.3 83 1857.7 78 1878.8 75.5L1900 73L1900 121L1878.8 121C1857.7 121 1815.3 121 1773.2 121C1731 121 1689 121 1646.8 121C1604.7 121 1562.3 121 1520 121C1477.7 121 1435.3 121 1393.2 121C1351 121 1309 121 1266.8 121C1224.7 121 1182.3 121 1140 121C1097.7 121 1055.3 121 1013.2 121C971 121 929 121 886.8 121C844.7 121 802.3 121 760 121C717.7 121 675.3 121 633.2 121C591 121 549 121 506.8 121C464.7 121 422.3 121 380 121C337.7 121 295.3 121 253.2 121C211 121 169 121 126.8 121C84.7 121 42.3 121 21.2 121L0 121Z" fill="#0d1a2e" stroke-linecap="round" stroke-linejoin="miter"></path></svg>